solid Toskoerper
 facet normal  1.000000e+00  0.000000e+00  0.000000e+00
   outer loop
     vertex  2.000000e+01 -1.500000e+00  0.000000e+00
     vertex  2.000000e+01  7.500000e+00  7.000000e-01
     vertex  2.000000e+01 -1.500000e+00  7.000000e-01
   endloop
 endfacet
 facet normal  1.000000e+00  0.000000e+00  0.000000e+00
   outer loop
     vertex  2.000000e+01 -1.500000e+00  0.000000e+00
     vertex  2.000000e+01  7.500000e+00  0.000000e+00
     vertex  2.000000e+01  7.500000e+00  7.000000e-01
   endloop
 endfacet
 facet normal -1.000000e+00  0.000000e+00  0.000000e+00
   outer loop
     vertex  1.600000e+01 -1.500000e+00  7.000000e-01
     vertex  1.600000e+01  7.500000e+00  0.000000e+00
     vertex  1.600000e+01 -1.500000e+00  0.000000e+00
   endloop
 endfacet
 facet normal -1.000000e+00  0.000000e+00  0.000000e+00
   outer loop
     vertex  1.600000e+01 -1.500000e+00  7.000000e-01
     vertex  1.600000e+01  7.500000e+00  7.000000e-01
     vertex  1.600000e+01  7.500000e+00  0.000000e+00
   endloop
 endfacet
 facet normal  0.000000e+00  0.000000e+00 -1.000000e+00
   outer loop
     vertex  1.600000e+01 -1.500000e+00  0.000000e+00
     vertex  2.000000e+01  7.500000e+00  0.000000e+00
     vertex  2.000000e+01 -1.500000e+00  0.000000e+00
   endloop
 endfacet
 facet normal  0.000000e+00  0.000000e+00 -1.000000e+00
   outer loop
     vertex  1.600000e+01 -1.500000e+00  0.000000e+00
     vertex  1.600000e+01  7.500000e+00  0.000000e+00
     vertex  2.000000e+01  7.500000e+00  0.000000e+00
   endloop
 endfacet
 facet normal -0.000000e+00 -1.000000e+00  0.000000e+00
   outer loop
     vertex  2.000000e+01 -1.500000e+00  7.000000e-01
     vertex  1.600000e+01 -1.500000e+00  7.000000e-01
     vertex  1.600000e+01 -1.500000e+00  0.000000e+00
   endloop
 endfacet
 facet normal  0.000000e+00 -1.000000e+00 -0.000000e+00
   outer loop
     vertex  2.000000e+01 -1.500000e+00  7.000000e-01
     vertex  1.600000e+01 -1.500000e+00  0.000000e+00
     vertex  2.000000e+01 -1.500000e+00  0.000000e+00
   endloop
 endfacet
 facet normal  0.000000e+00  1.000000e+00  0.000000e+00
   outer loop
     vertex  2.000000e+01  7.500000e+00  7.000000e-01
     vertex  1.600000e+01  7.500000e+00  0.000000e+00
     vertex  1.600000e+01  7.500000e+00  7.000000e-01
   endloop
 endfacet
 facet normal  0.000000e+00  1.000000e+00  0.000000e+00
   outer loop
     vertex  2.000000e+01  7.500000e+00  7.000000e-01
     vertex  2.000000e+01  7.500000e+00  0.000000e+00
     vertex  1.600000e+01  7.500000e+00  0.000000e+00
   endloop
 endfacet
 facet normal  0.000000e+00  0.000000e+00  1.000000e+00
   outer loop
     vertex  2.000000e+01 -1.500000e+00  7.000000e-01
     vertex  1.600000e+01  7.500000e+00  7.000000e-01
     vertex  1.600000e+01 -1.500000e+00  7.000000e-01
   endloop
 endfacet
 facet normal  0.000000e+00 -0.000000e+00  1.000000e+00
   outer loop
     vertex  2.000000e+01 -1.500000e+00  7.000000e-01
     vertex  2.000000e+01  7.500000e+00  7.000000e-01
     vertex  1.600000e+01  7.500000e+00  7.000000e-01
   endloop
 endfacet
endsolid
solid Wehrruecken
 facet normal  7.071068e-01  0.000000e+00  7.071068e-01
   outer loop
     vertex  9.014214e+00  1.500000e+00  0.000000e+00
     vertex  5.707107e+00  4.500000e+00  3.307107e+00
     vertex  5.707107e+00  1.500000e+00  3.307107e+00
   endloop
 endfacet
 facet normal  7.071068e-01 -0.000000e+00  7.071068e-01
   outer loop
     vertex  9.014214e+00  1.500000e+00  0.000000e+00
     vertex  9.014214e+00  4.500000e+00  0.000000e+00
     vertex  5.707107e+00  4.500000e+00  3.307107e+00
   endloop
 endfacet
 facet normal  6.564464e-01  0.000000e+00  7.543727e-01
   outer loop
     vertex  5.602635e+00  1.500000e+00  3.398017e+00
     vertex  5.707107e+00  1.500000e+00  3.307107e+00
     vertex  5.707107e+00  4.500000e+00  3.307107e+00
   endloop
 endfacet
 facet normal  6.564464e-01 -0.000000e+00  7.543727e-01
   outer loop
     vertex  5.602635e+00  1.500000e+00  3.398017e+00
     vertex  5.707107e+00  4.500000e+00  3.307107e+00
     vertex  5.602635e+00  4.500000e+00  3.398017e+00
   endloop
 endfacet
 facet normal  5.459299e-01 -0.000000e+00  8.378308e-01
   outer loop
     vertex  5.486604e+00  1.500000e+00  3.473622e+00
     vertex  5.602635e+00  4.500000e+00  3.398017e+00
     vertex  5.486604e+00  4.500000e+00  3.473622e+00
   endloop
 endfacet
 facet normal  4.249431e-01 -0.000000e+00  9.052201e-01
   outer loop
     vertex  5.486604e+00  1.500000e+00  3.473622e+00
     vertex  5.486604e+00  4.500000e+00  3.473622e+00
     vertex  5.361242e+00  4.500000e+00  3.532472e+00
   endloop
 endfacet
 facet normal  5.459299e-01  0.000000e+00  8.378308e-01
   outer loop
     vertex  5.486604e+00  1.500000e+00  3.473622e+00
     vertex  5.602635e+00  1.500000e+00  3.398017e+00
     vertex  5.602635e+00  4.500000e+00  3.398017e+00
   endloop
 endfacet
 facet normal  4.249431e-01 -0.000000e+00  9.052201e-01
   outer loop
     vertex  5.361242e+00  1.500000e+00  3.532472e+00
     vertex  5.486604e+00  1.500000e+00  3.473622e+00
     vertex  5.361242e+00  4.500000e+00  3.532472e+00
   endloop
 endfacet
 facet normal  2.958061e-01 -0.000000e+00  9.552480e-01
   outer loop
     vertex  5.228951e+00  1.500000e+00  3.573438e+00
     vertex  5.361242e+00  4.500000e+00  3.532472e+00
     vertex  5.228951e+00  4.500000e+00  3.573438e+00
   endloop
 endfacet
 facet normal  2.958061e-01  0.000000e+00  9.552480e-01
   outer loop
     vertex  5.228951e+00  1.500000e+00  3.573438e+00
     vertex  5.361242e+00  1.500000e+00  3.532472e+00
     vertex  5.361242e+00  4.500000e+00  3.532472e+00
   endloop
 endfacet
 facet normal  1.609959e-01 -0.000000e+00  9.869551e-01
   outer loop
     vertex  5.092268e+00  1.500000e+00  3.595734e+00
     vertex  5.228951e+00  4.500000e+00  3.573438e+00
     vertex  5.092268e+00  4.500000e+00  3.595734e+00
   endloop
 endfacet
 facet normal  1.609959e-01  0.000000e+00  9.869551e-01
   outer loop
     vertex  5.092268e+00  1.500000e+00  3.595734e+00
     vertex  5.228951e+00  1.500000e+00  3.573438e+00
     vertex  5.228951e+00  4.500000e+00  3.573438e+00
   endloop
 endfacet
 facet normal  2.309789e-02 -0.000000e+00  9.997332e-01
   outer loop
     vertex  4.953817e+00  1.500000e+00  3.598933e+00
     vertex  5.092268e+00  4.500000e+00  3.595734e+00
     vertex  4.953817e+00  4.500000e+00  3.598933e+00
   endloop
 endfacet
 facet normal  2.309789e-02  0.000000e+00  9.997332e-01
   outer loop
     vertex  4.953817e+00  1.500000e+00  3.598933e+00
     vertex  5.092268e+00  1.500000e+00  3.595734e+00
     vertex  5.092268e+00  4.500000e+00  3.595734e+00
   endloop
 endfacet
 facet normal -1.152431e-01  0.000000e+00  9.933373e-01
   outer loop
     vertex  4.816250e+00  1.500000e+00  3.582973e+00
     vertex  4.953817e+00  4.500000e+00  3.598933e+00
     vertex  4.816250e+00  4.500000e+00  3.582973e+00
   endloop
 endfacet
 facet normal -1.152431e-01  0.000000e+00  9.933373e-01
   outer loop
     vertex  4.816250e+00  1.500000e+00  3.582973e+00
     vertex  4.953817e+00  1.500000e+00  3.598933e+00
     vertex  4.953817e+00  4.500000e+00  3.598933e+00
   endloop
 endfacet
 facet normal -2.513738e-01  0.000000e+00  9.678901e-01
   outer loop
     vertex  4.682209e+00  1.500000e+00  3.548161e+00
     vertex  4.816250e+00  4.500000e+00  3.582973e+00
     vertex  4.682209e+00  4.500000e+00  3.548161e+00
   endloop
 endfacet
 facet normal -2.513738e-01  0.000000e+00  9.678901e-01
   outer loop
     vertex  4.682209e+00  1.500000e+00  3.548161e+00
     vertex  4.816250e+00  1.500000e+00  3.582973e+00
     vertex  4.816250e+00  4.500000e+00  3.582973e+00
   endloop
 endfacet
 facet normal -3.826834e-01  0.000000e+00  9.238795e-01
   outer loop
     vertex  4.554262e+00  1.500000e+00  3.495163e+00
     vertex  4.682209e+00  4.500000e+00  3.548161e+00
     vertex  4.554262e+00  4.500000e+00  3.495163e+00
   endloop
 endfacet
 facet normal -3.826834e-01  0.000000e+00  9.238795e-01
   outer loop
     vertex  4.554262e+00  1.500000e+00  3.495163e+00
     vertex  4.682209e+00  1.500000e+00  3.548161e+00
     vertex  4.682209e+00  4.500000e+00  3.548161e+00
   endloop
 endfacet
 facet normal -5.066535e-01  0.000000e+00  8.621498e-01
   outer loop
     vertex  4.434864e+00  1.500000e+00  3.424997e+00
     vertex  4.554262e+00  4.500000e+00  3.495163e+00
     vertex  4.434864e+00  4.500000e+00  3.424997e+00
   endloop
 endfacet
 facet normal -5.066535e-01  0.000000e+00  8.621498e-01
   outer loop
     vertex  4.434864e+00  1.500000e+00  3.424997e+00
     vertex  4.554262e+00  1.500000e+00  3.495163e+00
     vertex  4.554262e+00  4.500000e+00  3.495163e+00
   endloop
 endfacet
 facet normal -6.209064e-01  0.000000e+00  7.838847e-01
   outer loop
     vertex  4.326304e+00  1.500000e+00  3.339009e+00
     vertex  4.434864e+00  4.500000e+00  3.424997e+00
     vertex  4.326304e+00  4.500000e+00  3.339009e+00
   endloop
 endfacet
 facet normal -7.232508e-01  0.000000e+00  6.905855e-01
   outer loop
     vertex  4.326304e+00  1.500000e+00  3.339009e+00
     vertex  4.326304e+00  4.500000e+00  3.339009e+00
     vertex  4.230666e+00  4.500000e+00  3.238847e+00
   endloop
 endfacet
 facet normal -6.209064e-01  0.000000e+00  7.838847e-01
   outer loop
     vertex  4.326304e+00  1.500000e+00  3.339009e+00
     vertex  4.434864e+00  1.500000e+00  3.424997e+00
     vertex  4.434864e+00  4.500000e+00  3.424997e+00
   endloop
 endfacet
 facet normal -8.117239e-01  0.000000e+00  5.840413e-01
   outer loop
     vertex  4.230666e+00  1.500000e+00  3.238847e+00
     vertex  4.230666e+00  4.500000e+00  3.238847e+00
     vertex  4.149783e+00  4.500000e+00  3.126432e+00
   endloop
 endfacet
 facet normal -7.232508e-01  0.000000e+00  6.905855e-01
   outer loop
     vertex  4.230666e+00  1.500000e+00  3.238847e+00
     vertex  4.326304e+00  1.500000e+00  3.339009e+00
     vertex  4.230666e+00  4.500000e+00  3.238847e+00
   endloop
 endfacet
 facet normal -8.117239e-01  0.000000e+00  5.840413e-01
   outer loop
     vertex  4.149783e+00  1.500000e+00  3.126432e+00
     vertex  4.230666e+00  1.500000e+00  3.238847e+00
     vertex  4.149783e+00  4.500000e+00  3.126432e+00
   endloop
 endfacet
 facet normal -8.846289e-01  0.000000e+00  4.662958e-01
   outer loop
     vertex  4.085206e+00  1.500000e+00  3.003921e+00
     vertex  4.149783e+00  4.500000e+00  3.126432e+00
     vertex  4.085206e+00  4.500000e+00  3.003921e+00
   endloop
 endfacet
 facet normal -8.846289e-01  0.000000e+00  4.662958e-01
   outer loop
     vertex  4.085206e+00  1.500000e+00  3.003921e+00
     vertex  4.149783e+00  1.500000e+00  3.126432e+00
     vertex  4.149783e+00  4.500000e+00  3.126432e+00
   endloop
 endfacet
 facet normal -9.405674e-01  0.000000e+00  3.396071e-01
   outer loop
     vertex  4.038174e+00  1.500000e+00  2.873663e+00
     vertex  4.085206e+00  4.500000e+00  3.003921e+00
     vertex  4.038174e+00  4.500000e+00  2.873663e+00
   endloop
 endfacet
 facet normal -9.405674e-01  0.000000e+00  3.396071e-01
   outer loop
     vertex  4.038174e+00  1.500000e+00  2.873663e+00
     vertex  4.085206e+00  1.500000e+00  3.003921e+00
     vertex  4.085206e+00  4.500000e+00  3.003921e+00
   endloop
 endfacet
 facet normal -9.784666e-01  0.000000e+00  2.064051e-01
   outer loop
     vertex  4.009590e+00  1.500000e+00  2.738156e+00
     vertex  4.038174e+00  1.500000e+00  2.873663e+00
     vertex  4.038174e+00  4.500000e+00  2.873663e+00
   endloop
 endfacet
 facet normal -9.784666e-01  0.000000e+00  2.064051e-01
   outer loop
     vertex  4.009590e+00  1.500000e+00  2.738156e+00
     vertex  4.038174e+00  4.500000e+00  2.873663e+00
     vertex  4.009590e+00  4.500000e+00  2.738156e+00
   endloop
 endfacet
 facet normal -9.975997e-01  0.000000e+00  6.924438e-02
   outer loop
     vertex  4.009590e+00  1.500000e+00  2.738156e+00
     vertex  4.009590e+00  4.500000e+00  2.738156e+00
     vertex  4.000000e+00  4.500000e+00  2.600000e+00
   endloop
 endfacet
 facet normal -9.975997e-01  0.000000e+00  6.924438e-02
   outer loop
     vertex  4.000000e+00  1.500000e+00  2.600000e+00
     vertex  4.009590e+00  1.500000e+00  2.738156e+00
     vertex  4.000000e+00  4.500000e+00  2.600000e+00
   endloop
 endfacet
endsolid
solid WehrWaende
 facet normal -1.000000e+00  0.000000e+00  0.000000e+00
   outer loop
     vertex  0.000000e+00  1.500000e+00  0.000000e+00
     vertex  0.000000e+00 -1.500000e+00  0.000000e+00
     vertex  0.000000e+00 -1.500000e+00  8.250000e+00
   endloop
 endfacet
 facet normal -1.000000e+00  0.000000e+00  0.000000e+00
   outer loop
     vertex  0.000000e+00  1.500000e+00  0.000000e+00
     vertex  0.000000e+00 -1.500000e+00  8.250000e+00
     vertex  0.000000e+00  1.500000e+00  8.250000e+00
   endloop
 endfacet
 facet normal -1.000000e+00  1.036439e-20  0.000000e+00
   outer loop
     vertex -1.554658e-20  7.500000e+00  0.000000e+00
     vertex -4.663975e-20  4.500000e+00  0.000000e+00
     vertex -4.663975e-20  4.500000e+00  8.250000e+00
   endloop
 endfacet
 facet normal -1.000000e+00  1.036439e-20  0.000000e+00
   outer loop
     vertex -1.554658e-20  7.500000e+00  0.000000e+00
     vertex -4.663975e-20  4.500000e+00  8.250000e+00
     vertex -1.554658e-20  7.500000e+00  8.250000e+00
   endloop
 endfacet
 facet normal  0.000000e+00 -1.000000e+00  0.000000e+00
   outer loop
     vertex  4.000000e+00 -1.500000e+00  0.000000e+00
     vertex  4.000000e+00 -1.500000e+00  8.250000e+00
     vertex  0.000000e+00 -1.500000e+00  8.250000e+00
   endloop
 endfacet
 facet normal  0.000000e+00 -1.000000e+00  0.000000e+00
   outer loop
     vertex  0.000000e+00 -1.500000e+00  0.000000e+00
     vertex  4.000000e+00 -1.500000e+00  0.000000e+00
     vertex  0.000000e+00 -1.500000e+00  8.250000e+00
   endloop
 endfacet
 facet normal  0.000000e+00  1.000000e+00  0.000000e+00
   outer loop
     vertex  0.000000e+00  1.500000e+00  0.000000e+00
     vertex  0.000000e+00  1.500000e+00  8.250000e+00
     vertex  4.000000e+00  1.500000e+00  8.250000e+00
   endloop
 endfacet
 facet normal  0.000000e+00  1.000000e+00 -0.000000e+00
   outer loop
     vertex  4.000000e+00  1.500000e+00  0.000000e+00
     vertex  0.000000e+00  1.500000e+00  0.000000e+00
     vertex  4.000000e+00  1.500000e+00  8.250000e+00
   endloop
 endfacet
 facet normal  0.000000e+00 -1.000000e+00  0.000000e+00
   outer loop
     vertex  4.000000e+00  4.500000e+00  0.000000e+00
     vertex  4.000000e+00  4.500000e+00  8.250000e+00
     vertex -4.663975e-20  4.500000e+00  8.250000e+00
   endloop
 endfacet
 facet normal  0.000000e+00 -1.000000e+00  0.000000e+00
   outer loop
     vertex -4.663975e-20  4.500000e+00  0.000000e+00
     vertex  4.000000e+00  4.500000e+00  0.000000e+00
     vertex -4.663975e-20  4.500000e+00  8.250000e+00
   endloop
 endfacet
 facet normal -1.000000e+00  0.000000e+00  0.000000e+00
   outer loop
     vertex  4.000000e+00  1.500000e+00  2.600000e+00
     vertex  4.000000e+00  4.500000e+00  0.000000e+00
     vertex  4.000000e+00  1.500000e+00  0.000000e+00
   endloop
 endfacet
 facet normal -1.000000e+00  0.000000e+00  0.000000e+00
   outer loop
     vertex  4.000000e+00  1.500000e+00  2.600000e+00
     vertex  4.000000e+00  4.500000e+00  2.600000e+00
     vertex  4.000000e+00  4.500000e+00  0.000000e+00
   endloop
 endfacet
 facet normal  0.000000e+00  0.000000e+00 -1.000000e+00
   outer loop
     vertex  4.000000e+00 -1.500000e+00  0.000000e+00
     vertex  0.000000e+00 -1.500000e+00  0.000000e+00
     vertex  0.000000e+00  1.500000e+00  0.000000e+00
   endloop
 endfacet
 facet normal -0.000000e+00 -0.000000e+00 -1.000000e+00
   outer loop
     vertex  4.000000e+00  1.500000e+00  0.000000e+00
     vertex  4.000000e+00 -1.500000e+00  0.000000e+00
     vertex  0.000000e+00  1.500000e+00  0.000000e+00
   endloop
 endfacet
 facet normal  0.000000e+00  0.000000e+00 -1.000000e+00
   outer loop
     vertex  9.014214e+00 -1.500000e+00  0.000000e+00
     vertex  4.000000e+00 -1.500000e+00  0.000000e+00
     vertex  4.000000e+00  1.500000e+00  0.000000e+00
   endloop
 endfacet
 facet normal -0.000000e+00 -0.000000e+00 -1.000000e+00
   outer loop
     vertex  9.014214e+00  1.500000e+00  0.000000e+00
     vertex  9.014214e+00 -1.500000e+00  0.000000e+00
     vertex  4.000000e+00  1.500000e+00  0.000000e+00
   endloop
 endfacet
 facet normal  0.000000e+00  0.000000e+00  1.000000e+00
   outer loop
     vertex  4.000000e+00 -1.500000e+00  8.250000e+00
     vertex  0.000000e+00  1.500000e+00  8.250000e+00
     vertex  0.000000e+00 -1.500000e+00  8.250000e+00
   endloop
 endfacet
 facet normal  0.000000e+00  0.000000e+00  1.000000e+00
   outer loop
     vertex  4.000000e+00  1.500000e+00  8.250000e+00
     vertex  0.000000e+00  1.500000e+00  8.250000e+00
     vertex  4.000000e+00 -1.500000e+00  8.250000e+00
   endloop
 endfacet
 facet normal  0.000000e+00  0.000000e+00  1.000000e+00
   outer loop
     vertex  9.014214e+00 -1.500000e+00  8.250000e+00
     vertex  4.000000e+00  1.500000e+00  8.250000e+00
     vertex  4.000000e+00 -1.500000e+00  8.250000e+00
   endloop
 endfacet
 facet normal  0.000000e+00  0.000000e+00  1.000000e+00
   outer loop
     vertex  9.014214e+00  1.500000e+00  8.250000e+00
     vertex  4.000000e+00  1.500000e+00  8.250000e+00
     vertex  9.014214e+00 -1.500000e+00  8.250000e+00
   endloop
 endfacet
 facet normal  6.402128e-01  0.000000e+00  7.681976e-01
   outer loop
     vertex  5.568065e+00  1.500000e+00  3.422984e+00
     vertex  5.707107e+00  1.500000e+00  3.307107e+00
     vertex  5.707107e+00  4.500000e+00  3.307107e+00
   endloop
 endfacet
 facet normal  6.402128e-01 -0.000000e+00  7.681976e-01
   outer loop
     vertex  5.568065e+00  1.500000e+00  3.422984e+00
     vertex  5.707107e+00  4.500000e+00  3.307107e+00
     vertex  5.568065e+00  4.500000e+00  3.422984e+00
   endloop
 endfacet
 facet normal  4.912546e-01 -0.000000e+00  8.710160e-01
   outer loop
     vertex  5.410413e+00  1.500000e+00  3.511900e+00
     vertex  5.568065e+00  4.500000e+00  3.422984e+00
     vertex  5.410413e+00  4.500000e+00  3.511900e+00
   endloop
 endfacet
 facet normal  4.912546e-01  0.000000e+00  8.710160e-01
   outer loop
     vertex  5.410413e+00  1.500000e+00  3.511900e+00
     vertex  5.568065e+00  1.500000e+00  3.422984e+00
     vertex  5.568065e+00  4.500000e+00  3.422984e+00
   endloop
 endfacet
 facet normal  3.262028e-01 -0.000000e+00  9.452998e-01
   outer loop
     vertex  5.239316e+00  1.500000e+00  3.570942e+00
     vertex  5.410413e+00  4.500000e+00  3.511900e+00
     vertex  5.239316e+00  4.500000e+00  3.570942e+00
   endloop
 endfacet
 facet normal  3.262028e-01  0.000000e+00  9.452998e-01
   outer loop
     vertex  5.239316e+00  1.500000e+00  3.570942e+00
     vertex  5.410413e+00  1.500000e+00  3.511900e+00
     vertex  5.410413e+00  4.500000e+00  3.511900e+00
   endloop
 endfacet
 facet normal  1.504645e-01 -0.000000e+00  9.886154e-01
   outer loop
     vertex  5.060378e+00  1.500000e+00  3.598176e+00
     vertex  5.239316e+00  4.500000e+00  3.570942e+00
     vertex  5.060378e+00  4.500000e+00  3.598176e+00
   endloop
 endfacet
 facet normal  1.504645e-01  0.000000e+00  9.886154e-01
   outer loop
     vertex  5.060378e+00  1.500000e+00  3.598176e+00
     vertex  5.239316e+00  1.500000e+00  3.570942e+00
     vertex  5.239316e+00  4.500000e+00  3.570942e+00
   endloop
 endfacet
 facet normal -3.020303e-02  0.000000e+00  9.995438e-01
   outer loop
     vertex  4.879463e+00  1.500000e+00  3.592709e+00
     vertex  5.060378e+00  4.500000e+00  3.598176e+00
     vertex  4.879463e+00  4.500000e+00  3.592709e+00
   endloop
 endfacet
 facet normal -2.098811e-01  0.000000e+00  9.777269e-01
   outer loop
     vertex  4.879463e+00  1.500000e+00  3.592709e+00
     vertex  4.879463e+00  4.500000e+00  3.592709e+00
     vertex  4.702497e+00  4.500000e+00  3.554721e+00
   endloop
 endfacet
 facet normal -3.020303e-02  0.000000e+00  9.995438e-01
   outer loop
     vertex  4.879463e+00  1.500000e+00  3.592709e+00
     vertex  5.060378e+00  1.500000e+00  3.598176e+00
     vertex  5.060378e+00  4.500000e+00  3.598176e+00
   endloop
 endfacet
 facet normal -2.098811e-01  0.000000e+00  9.777269e-01
   outer loop
     vertex  4.702497e+00  1.500000e+00  3.554721e+00
     vertex  4.879463e+00  1.500000e+00  3.592709e+00
     vertex  4.702497e+00  4.500000e+00  3.554721e+00
   endloop
 endfacet
 facet normal -3.826834e-01  0.000000e+00  9.238795e-01
   outer loop
     vertex  4.535277e+00  1.500000e+00  3.485456e+00
     vertex  4.702497e+00  4.500000e+00  3.554721e+00
     vertex  4.535277e+00  4.500000e+00  3.485456e+00
   endloop
 endfacet
 facet normal -3.826834e-01  0.000000e+00  9.238795e-01
   outer loop
     vertex  4.535277e+00  1.500000e+00  3.485456e+00
     vertex  4.702497e+00  1.500000e+00  3.554721e+00
     vertex  4.702497e+00  4.500000e+00  3.554721e+00
   endloop
 endfacet
 facet normal -5.429490e-01  0.000000e+00  8.397657e-01
   outer loop
     vertex  4.383281e+00  1.500000e+00  3.387183e+00
     vertex  4.535277e+00  4.500000e+00  3.485456e+00
     vertex  4.383281e+00  4.500000e+00  3.387183e+00
   endloop
 endfacet
 facet normal -6.854274e-01  0.000000e+00  7.281410e-01
   outer loop
     vertex  4.383281e+00  1.500000e+00  3.387183e+00
     vertex  4.383281e+00  4.500000e+00  3.387183e+00
     vertex  4.251489e+00  4.500000e+00  3.263123e+00
   endloop
 endfacet
 facet normal -5.429490e-01  0.000000e+00  8.397657e-01
   outer loop
     vertex  4.383281e+00  1.500000e+00  3.387183e+00
     vertex  4.535277e+00  1.500000e+00  3.485456e+00
     vertex  4.535277e+00  4.500000e+00  3.485456e+00
   endloop
 endfacet
 facet normal -6.854274e-01  0.000000e+00  7.281410e-01
   outer loop
     vertex  4.251489e+00  1.500000e+00  3.263123e+00
     vertex  4.383281e+00  1.500000e+00  3.387183e+00
     vertex  4.251489e+00  4.500000e+00  3.263123e+00
   endloop
 endfacet
 facet normal -8.054511e-01  0.000000e+00  5.926622e-01
   outer loop
     vertex  4.144219e+00  1.500000e+00  3.117338e+00
     vertex  4.251489e+00  4.500000e+00  3.263123e+00
     vertex  4.144219e+00  4.500000e+00  3.117338e+00
   endloop
 endfacet
 facet normal -8.054511e-01  0.000000e+00  5.926622e-01
   outer loop
     vertex  4.144219e+00  1.500000e+00  3.117338e+00
     vertex  4.251489e+00  1.500000e+00  3.263123e+00
     vertex  4.251489e+00  4.500000e+00  3.263123e+00
   endloop
 endfacet
 facet normal -8.990881e-01  0.000000e+00  4.377677e-01
   outer loop
     vertex  4.064984e+00  1.500000e+00  2.954605e+00
     vertex  4.144219e+00  4.500000e+00  3.117338e+00
     vertex  4.064984e+00  4.500000e+00  2.954605e+00
   endloop
 endfacet
 facet normal -8.990881e-01  0.000000e+00  4.377677e-01
   outer loop
     vertex  4.064984e+00  1.500000e+00  2.954605e+00
     vertex  4.144219e+00  1.500000e+00  3.117338e+00
     vertex  4.144219e+00  4.500000e+00  3.117338e+00
   endloop
 endfacet
 facet normal -9.632708e-01  0.000000e+00  2.685319e-01
   outer loop
     vertex  4.016380e+00  1.500000e+00  2.780255e+00
     vertex  4.064984e+00  4.500000e+00  2.954605e+00
     vertex  4.016380e+00  4.500000e+00  2.780255e+00
   endloop
 endfacet
 facet normal -9.632708e-01  0.000000e+00  2.685319e-01
   outer loop
     vertex  4.016380e+00  1.500000e+00  2.780255e+00
     vertex  4.064984e+00  1.500000e+00  2.954605e+00
     vertex  4.064984e+00  4.500000e+00  2.954605e+00
   endloop
 endfacet
 facet normal -9.958966e-01  0.000000e+00  9.049888e-02
   outer loop
     vertex  4.000000e+00  1.500000e+00  2.600000e+00
     vertex  4.016380e+00  4.500000e+00  2.780255e+00
     vertex  4.000000e+00  4.500000e+00  2.600000e+00
   endloop
 endfacet
 facet normal -9.958966e-01  0.000000e+00  9.049888e-02
   outer loop
     vertex  4.000000e+00  1.500000e+00  2.600000e+00
     vertex  4.016380e+00  1.500000e+00  2.780255e+00
     vertex  4.016380e+00  4.500000e+00  2.780255e+00
   endloop
 endfacet
 facet normal  0.000000e+00  0.000000e+00 -1.000000e+00
   outer loop
     vertex  4.000000e+00  4.500000e+00  0.000000e+00
     vertex -4.663975e-20  4.500000e+00  0.000000e+00
     vertex -1.554658e-20  7.500000e+00  0.000000e+00
   endloop
 endfacet
 facet normal  0.000000e+00 -0.000000e+00 -1.000000e+00
   outer loop
     vertex  9.014214e+00  7.500000e+00  0.000000e+00
     vertex  9.014214e+00  4.500000e+00  0.000000e+00
     vertex  4.000000e+00  4.500000e+00  0.000000e+00
   endloop
 endfacet
 facet normal -0.000000e+00  0.000000e+00 -1.000000e+00
   outer loop
     vertex  9.014214e+00  7.500000e+00  0.000000e+00
     vertex  4.000000e+00  4.500000e+00  0.000000e+00
     vertex -1.554658e-20  7.500000e+00  0.000000e+00
   endloop
 endfacet
 facet normal  0.000000e+00  0.000000e+00  1.000000e+00
   outer loop
     vertex  4.000000e+00  4.500000e+00  8.250000e+00
     vertex -1.554658e-20  7.500000e+00  8.250000e+00
     vertex -4.663975e-20  4.500000e+00  8.250000e+00
   endloop
 endfacet
 facet normal  0.000000e+00  0.000000e+00  1.000000e+00
   outer loop
     vertex  9.014214e+00  7.500000e+00  8.250000e+00
     vertex  4.000000e+00  4.500000e+00  8.250000e+00
     vertex  9.014214e+00  4.500000e+00  8.250000e+00
   endloop
 endfacet
 facet normal  0.000000e+00  0.000000e+00  1.000000e+00
   outer loop
     vertex  9.014214e+00  7.500000e+00  8.250000e+00
     vertex -1.554658e-20  7.500000e+00  8.250000e+00
     vertex  4.000000e+00  4.500000e+00  8.250000e+00
   endloop
 endfacet
 facet normal  0.000000e+00  1.000000e+00  0.000000e+00
   outer loop
     vertex  9.014214e+00  7.500000e+00  8.250000e+00
     vertex -1.554658e-20  7.500000e+00  0.000000e+00
     vertex -1.554658e-20  7.500000e+00  8.250000e+00
   endloop
 endfacet
 facet normal  0.000000e+00  1.000000e+00 -0.000000e+00
   outer loop
     vertex  9.014214e+00  7.500000e+00  0.000000e+00
     vertex -1.554658e-20  7.500000e+00  0.000000e+00
     vertex  9.014214e+00  7.500000e+00  8.250000e+00
   endloop
 endfacet
 facet normal  0.000000e+00 -1.000000e+00  0.000000e+00
   outer loop
     vertex  4.535277e+00  1.500000e+00  3.485456e+00
     vertex  4.383281e+00  1.500000e+00  3.387183e+00
     vertex  4.251489e+00  1.500000e+00  3.263123e+00
   endloop
 endfacet
 facet normal  0.000000e+00 -1.000000e+00  0.000000e+00
   outer loop
     vertex  4.879463e+00  1.500000e+00  3.592709e+00
     vertex  4.702497e+00  1.500000e+00  3.554721e+00
     vertex  4.535277e+00  1.500000e+00  3.485456e+00
   endloop
 endfacet
 facet normal  0.000000e+00 -1.000000e+00  0.000000e+00
   outer loop
     vertex  4.000000e+00  1.500000e+00  2.600000e+00
     vertex  4.251489e+00  1.500000e+00  3.263123e+00
     vertex  4.144219e+00  1.500000e+00  3.117338e+00
   endloop
 endfacet
 facet normal  0.000000e+00 -1.000000e+00  0.000000e+00
   outer loop
     vertex  4.000000e+00  1.500000e+00  2.600000e+00
     vertex  4.144219e+00  1.500000e+00  3.117338e+00
     vertex  4.064984e+00  1.500000e+00  2.954605e+00
   endloop
 endfacet
 facet normal  0.000000e+00 -1.000000e+00  0.000000e+00
   outer loop
     vertex  4.000000e+00  1.500000e+00  2.600000e+00
     vertex  4.064984e+00  1.500000e+00  2.954605e+00
     vertex  4.016380e+00  1.500000e+00  2.780255e+00
   endloop
 endfacet
 facet normal  0.000000e+00 -1.000000e+00  0.000000e+00
   outer loop
     vertex  4.000000e+00  1.500000e+00  2.600000e+00
     vertex  4.535277e+00  1.500000e+00  3.485456e+00
     vertex  4.251489e+00  1.500000e+00  3.263123e+00
   endloop
 endfacet
 facet normal  0.000000e+00 -1.000000e+00  0.000000e+00
   outer loop
     vertex  5.410413e+00  1.500000e+00  3.511900e+00
     vertex  5.239316e+00  1.500000e+00  3.570942e+00
     vertex  5.060378e+00  1.500000e+00  3.598176e+00
   endloop
 endfacet
 facet normal  0.000000e+00 -1.000000e+00  0.000000e+00
   outer loop
     vertex  5.410413e+00  1.500000e+00  3.511900e+00
     vertex  5.060378e+00  1.500000e+00  3.598176e+00
     vertex  4.879463e+00  1.500000e+00  3.592709e+00
   endloop
 endfacet
 facet normal  0.000000e+00 -1.000000e+00  0.000000e+00
   outer loop
     vertex  5.707107e+00  1.500000e+00  3.307107e+00
     vertex  5.568065e+00  1.500000e+00  3.422984e+00
     vertex  5.410413e+00  1.500000e+00  3.511900e+00
   endloop
 endfacet
 facet normal  0.000000e+00 -1.000000e+00  0.000000e+00
   outer loop
     vertex  5.707107e+00  1.500000e+00  3.307107e+00
     vertex  4.879463e+00  1.500000e+00  3.592709e+00
     vertex  4.535277e+00  1.500000e+00  3.485456e+00
   endloop
 endfacet
 facet normal -0.000000e+00 -1.000000e+00  0.000000e+00
   outer loop
     vertex  5.707107e+00  1.500000e+00  3.307107e+00
     vertex  4.535277e+00  1.500000e+00  3.485456e+00
     vertex  4.000000e+00  1.500000e+00  2.600000e+00
   endloop
 endfacet
 facet normal  0.000000e+00 -1.000000e+00  0.000000e+00
   outer loop
     vertex  5.707107e+00  1.500000e+00  3.307107e+00
     vertex  5.410413e+00  1.500000e+00  3.511900e+00
     vertex  4.879463e+00  1.500000e+00  3.592709e+00
   endloop
 endfacet
 facet normal  0.000000e+00 -1.000000e+00  0.000000e+00
   outer loop
     vertex  4.000000e+00  1.500000e+00  0.000000e+00
     vertex  5.707107e+00  1.500000e+00  3.307107e+00
     vertex  4.000000e+00  1.500000e+00  2.600000e+00
   endloop
 endfacet
 facet normal  0.000000e+00 -1.000000e+00  0.000000e+00
   outer loop
     vertex  9.014214e+00  1.500000e+00  0.000000e+00
     vertex  5.707107e+00  1.500000e+00  3.307107e+00
     vertex  4.000000e+00  1.500000e+00  0.000000e+00
   endloop
 endfacet
 facet normal  0.000000e+00  1.000000e+00  0.000000e+00
   outer loop
     vertex  5.410413e+00  4.500000e+00  3.511900e+00
     vertex  5.568065e+00  4.500000e+00  3.422984e+00
     vertex  5.707107e+00  4.500000e+00  3.307107e+00
   endloop
 endfacet
 facet normal  0.000000e+00  1.000000e+00  0.000000e+00
   outer loop
     vertex  5.060378e+00  4.500000e+00  3.598176e+00
     vertex  5.239316e+00  4.500000e+00  3.570942e+00
     vertex  5.410413e+00  4.500000e+00  3.511900e+00
   endloop
 endfacet
 facet normal  0.000000e+00  1.000000e+00  0.000000e+00
   outer loop
     vertex  5.060378e+00  4.500000e+00  3.598176e+00
     vertex  5.410413e+00  4.500000e+00  3.511900e+00
     vertex  5.707107e+00  4.500000e+00  3.307107e+00
   endloop
 endfacet
 facet normal -0.000000e+00  1.000000e+00  0.000000e+00
   outer loop
     vertex  4.879463e+00  4.500000e+00  3.592709e+00
     vertex  5.060378e+00  4.500000e+00  3.598176e+00
     vertex  5.707107e+00  4.500000e+00  3.307107e+00
   endloop
 endfacet
 facet normal  0.000000e+00  1.000000e+00  0.000000e+00
   outer loop
     vertex  4.251489e+00  4.500000e+00  3.263123e+00
     vertex  4.702497e+00  4.500000e+00  3.554721e+00
     vertex  4.879463e+00  4.500000e+00  3.592709e+00
   endloop
 endfacet
 facet normal  0.000000e+00  1.000000e+00  0.000000e+00
   outer loop
     vertex  4.251489e+00  4.500000e+00  3.263123e+00
     vertex  4.535277e+00  4.500000e+00  3.485456e+00
     vertex  4.702497e+00  4.500000e+00  3.554721e+00
   endloop
 endfacet
 facet normal  0.000000e+00  1.000000e+00  0.000000e+00
   outer loop
     vertex  4.251489e+00  4.500000e+00  3.263123e+00
     vertex  4.383281e+00  4.500000e+00  3.387183e+00
     vertex  4.535277e+00  4.500000e+00  3.485456e+00
   endloop
 endfacet
 facet normal  0.000000e+00  1.000000e+00  0.000000e+00
   outer loop
     vertex  4.144219e+00  4.500000e+00  3.117338e+00
     vertex  4.251489e+00  4.500000e+00  3.263123e+00
     vertex  4.879463e+00  4.500000e+00  3.592709e+00
   endloop
 endfacet
 facet normal  0.000000e+00  1.000000e+00  0.000000e+00
   outer loop
     vertex  4.000000e+00  4.500000e+00  2.600000e+00
     vertex  4.064984e+00  4.500000e+00  2.954605e+00
     vertex  4.144219e+00  4.500000e+00  3.117338e+00
   endloop
 endfacet
 facet normal  0.000000e+00  1.000000e+00  0.000000e+00
   outer loop
     vertex  4.000000e+00  4.500000e+00  2.600000e+00
     vertex  4.016380e+00  4.500000e+00  2.780255e+00
     vertex  4.064984e+00  4.500000e+00  2.954605e+00
   endloop
 endfacet
 facet normal  0.000000e+00  1.000000e+00  0.000000e+00
   outer loop
     vertex  4.000000e+00  4.500000e+00  2.600000e+00
     vertex  4.879463e+00  4.500000e+00  3.592709e+00
     vertex  5.707107e+00  4.500000e+00  3.307107e+00
   endloop
 endfacet
 facet normal  0.000000e+00  1.000000e+00  0.000000e+00
   outer loop
     vertex  4.000000e+00  4.500000e+00  2.600000e+00
     vertex  4.144219e+00  4.500000e+00  3.117338e+00
     vertex  4.879463e+00  4.500000e+00  3.592709e+00
   endloop
 endfacet
 facet normal  0.000000e+00  1.000000e+00  0.000000e+00
   outer loop
     vertex  4.000000e+00  4.500000e+00  0.000000e+00
     vertex  5.707107e+00  4.500000e+00  3.307107e+00
     vertex  9.014214e+00  4.500000e+00  0.000000e+00
   endloop
 endfacet
 facet normal  0.000000e+00  1.000000e+00  0.000000e+00
   outer loop
     vertex  4.000000e+00  4.500000e+00  0.000000e+00
     vertex  4.000000e+00  4.500000e+00  2.600000e+00
     vertex  5.707107e+00  4.500000e+00  3.307107e+00
   endloop
 endfacet
 facet normal  0.000000e+00 -1.000000e+00  0.000000e+00
   outer loop
     vertex  4.000000e+00 -1.500000e+00  0.000000e+00
     vertex  9.014214e+00 -1.500000e+00  8.250000e+00
     vertex  4.000000e+00 -1.500000e+00  8.250000e+00
   endloop
 endfacet
 facet normal  0.000000e+00 -1.000000e+00  0.000000e+00
   outer loop
     vertex  9.014214e+00 -1.500000e+00  0.000000e+00
     vertex  9.014214e+00 -1.500000e+00  8.250000e+00
     vertex  4.000000e+00 -1.500000e+00  0.000000e+00
   endloop
 endfacet
 facet normal  0.000000e+00  1.000000e+00  0.000000e+00
   outer loop
     vertex  4.000000e+00  1.500000e+00  0.000000e+00
     vertex  4.000000e+00  1.500000e+00  8.250000e+00
     vertex  9.014214e+00  1.500000e+00  8.250000e+00
   endloop
 endfacet
 facet normal  0.000000e+00  1.000000e+00 -0.000000e+00
   outer loop
     vertex  9.014214e+00  1.500000e+00  0.000000e+00
     vertex  4.000000e+00  1.500000e+00  0.000000e+00
     vertex  9.014214e+00  1.500000e+00  8.250000e+00
   endloop
 endfacet
 facet normal -0.000000e+00  0.000000e+00 -1.000000e+00
   outer loop
     vertex  9.014214e+00  4.500000e+00  0.000000e+00
     vertex  4.000000e+00  1.500000e+00  0.000000e+00
     vertex  4.000000e+00  4.500000e+00  0.000000e+00
   endloop
 endfacet
 facet normal  0.000000e+00  0.000000e+00 -1.000000e+00
   outer loop
     vertex  9.014214e+00  1.500000e+00  0.000000e+00
     vertex  4.000000e+00  1.500000e+00  0.000000e+00
     vertex  9.014214e+00  4.500000e+00  0.000000e+00
   endloop
 endfacet
 facet normal  0.000000e+00 -1.000000e+00  0.000000e+00
   outer loop
     vertex  9.014214e+00  4.500000e+00  0.000000e+00
     vertex  9.014214e+00  4.500000e+00  8.250000e+00
     vertex  4.000000e+00  4.500000e+00  8.250000e+00
   endloop
 endfacet
 facet normal  0.000000e+00 -1.000000e+00  0.000000e+00
   outer loop
     vertex  4.000000e+00  4.500000e+00  0.000000e+00
     vertex  9.014214e+00  4.500000e+00  0.000000e+00
     vertex  4.000000e+00  4.500000e+00  8.250000e+00
   endloop
 endfacet
 facet normal  7.071068e-01  0.000000e+00  7.071068e-01
   outer loop
     vertex  9.014214e+00  1.500000e+00  0.000000e+00
     vertex  5.707107e+00  4.500000e+00  3.307107e+00
     vertex  5.707107e+00  1.500000e+00  3.307107e+00
   endloop
 endfacet
 facet normal  7.071068e-01 -0.000000e+00  7.071068e-01
   outer loop
     vertex  9.014214e+00  1.500000e+00  0.000000e+00
     vertex  9.014214e+00  4.500000e+00  0.000000e+00
     vertex  5.707107e+00  4.500000e+00  3.307107e+00
   endloop
 endfacet
 facet normal  1.000000e+00  0.000000e+00  0.000000e+00
   outer loop
     vertex  9.014214e+00 -1.500000e+00  0.000000e+00
     vertex  9.014214e+00  1.500000e+00  0.000000e+00
     vertex  9.014214e+00  1.500000e+00  8.250000e+00
   endloop
 endfacet
 facet normal  1.000000e+00  0.000000e+00  0.000000e+00
   outer loop
     vertex  9.014214e+00 -1.500000e+00  0.000000e+00
     vertex  9.014214e+00  1.500000e+00  8.250000e+00
     vertex  9.014214e+00 -1.500000e+00  8.250000e+00
   endloop
 endfacet
 facet normal  1.000000e+00  0.000000e+00  0.000000e+00
   outer loop
     vertex  9.014214e+00  4.500000e+00  0.000000e+00
     vertex  9.014214e+00  7.500000e+00  0.000000e+00
     vertex  9.014214e+00  7.500000e+00  8.250000e+00
   endloop
 endfacet
 facet normal  1.000000e+00  0.000000e+00  0.000000e+00
   outer loop
     vertex  9.014214e+00  4.500000e+00  0.000000e+00
     vertex  9.014214e+00  7.500000e+00  8.250000e+00
     vertex  9.014214e+00  4.500000e+00  8.250000e+00
   endloop
 endfacet
endsolid
