solid WehrWaende
 facet normal -1.000000e+00  0.000000e+00  0.000000e+00
   outer loop
     vertex  0.000000e+00  1.500000e+00  0.000000e+00
     vertex  0.000000e+00 -1.500000e+00  0.000000e+00
     vertex  0.000000e+00 -1.500000e+00  8.250000e+00
   endloop
 endfacet
 facet normal -1.000000e+00  0.000000e+00  0.000000e+00
   outer loop
     vertex  0.000000e+00  1.500000e+00  0.000000e+00
     vertex  0.000000e+00 -1.500000e+00  8.250000e+00
     vertex  0.000000e+00  1.500000e+00  8.250000e+00
   endloop
 endfacet
 facet normal -1.000000e+00  1.036439e-20  0.000000e+00
   outer loop
     vertex -1.554658e-20  7.500000e+00  0.000000e+00
     vertex -4.663975e-20  4.500000e+00  0.000000e+00
     vertex -4.663975e-20  4.500000e+00  8.250000e+00
   endloop
 endfacet
 facet normal -1.000000e+00  1.036439e-20  0.000000e+00
   outer loop
     vertex -1.554658e-20  7.500000e+00  0.000000e+00
     vertex -4.663975e-20  4.500000e+00  8.250000e+00
     vertex -1.554658e-20  7.500000e+00  8.250000e+00
   endloop
 endfacet
 facet normal  0.000000e+00 -1.000000e+00  0.000000e+00
   outer loop
     vertex  4.000000e+00 -1.500000e+00  0.000000e+00
     vertex  4.000000e+00 -1.500000e+00  8.250000e+00
     vertex  0.000000e+00 -1.500000e+00  8.250000e+00
   endloop
 endfacet
 facet normal  0.000000e+00 -1.000000e+00  0.000000e+00
   outer loop
     vertex  0.000000e+00 -1.500000e+00  0.000000e+00
     vertex  4.000000e+00 -1.500000e+00  0.000000e+00
     vertex  0.000000e+00 -1.500000e+00  8.250000e+00
   endloop
 endfacet
 facet normal  0.000000e+00  1.000000e+00  0.000000e+00
   outer loop
     vertex  0.000000e+00  1.500000e+00  0.000000e+00
     vertex  0.000000e+00  1.500000e+00  8.250000e+00
     vertex  4.000000e+00  1.500000e+00  8.250000e+00
   endloop
 endfacet
 facet normal  0.000000e+00  1.000000e+00 -0.000000e+00
   outer loop
     vertex  4.000000e+00  1.500000e+00  0.000000e+00
     vertex  0.000000e+00  1.500000e+00  0.000000e+00
     vertex  4.000000e+00  1.500000e+00  8.250000e+00
   endloop
 endfacet
 facet normal  0.000000e+00 -1.000000e+00  0.000000e+00
   outer loop
     vertex  4.000000e+00  4.500000e+00  0.000000e+00
     vertex  4.000000e+00  4.500000e+00  8.250000e+00
     vertex -4.663975e-20  4.500000e+00  8.250000e+00
   endloop
 endfacet
 facet normal  0.000000e+00 -1.000000e+00  0.000000e+00
   outer loop
     vertex -4.663975e-20  4.500000e+00  0.000000e+00
     vertex  4.000000e+00  4.500000e+00  0.000000e+00
     vertex -4.663975e-20  4.500000e+00  8.250000e+00
   endloop
 endfacet
 facet normal -1.000000e+00  0.000000e+00  0.000000e+00
   outer loop
     vertex  4.000000e+00  1.500000e+00  2.600000e+00
     vertex  4.000000e+00  4.500000e+00  0.000000e+00
     vertex  4.000000e+00  1.500000e+00  0.000000e+00
   endloop
 endfacet
 facet normal -1.000000e+00  0.000000e+00  0.000000e+00
   outer loop
     vertex  4.000000e+00  1.500000e+00  2.600000e+00
     vertex  4.000000e+00  4.500000e+00  2.600000e+00
     vertex  4.000000e+00  4.500000e+00  0.000000e+00
   endloop
 endfacet
 facet normal  0.000000e+00  0.000000e+00 -1.000000e+00
   outer loop
     vertex  4.000000e+00 -1.500000e+00  0.000000e+00
     vertex  0.000000e+00 -1.500000e+00  0.000000e+00
     vertex  0.000000e+00  1.500000e+00  0.000000e+00
   endloop
 endfacet
 facet normal -0.000000e+00 -0.000000e+00 -1.000000e+00
   outer loop
     vertex  4.000000e+00  1.500000e+00  0.000000e+00
     vertex  4.000000e+00 -1.500000e+00  0.000000e+00
     vertex  0.000000e+00  1.500000e+00  0.000000e+00
   endloop
 endfacet
 facet normal  0.000000e+00  0.000000e+00 -1.000000e+00
   outer loop
     vertex  9.014214e+00 -1.500000e+00  0.000000e+00
     vertex  4.000000e+00 -1.500000e+00  0.000000e+00
     vertex  4.000000e+00  1.500000e+00  0.000000e+00
   endloop
 endfacet
 facet normal -0.000000e+00 -0.000000e+00 -1.000000e+00
   outer loop
     vertex  9.014214e+00  1.500000e+00  0.000000e+00
     vertex  9.014214e+00 -1.500000e+00  0.000000e+00
     vertex  4.000000e+00  1.500000e+00  0.000000e+00
   endloop
 endfacet
 facet normal  0.000000e+00  0.000000e+00  1.000000e+00
   outer loop
     vertex  4.000000e+00 -1.500000e+00  8.250000e+00
     vertex  0.000000e+00  1.500000e+00  8.250000e+00
     vertex  0.000000e+00 -1.500000e+00  8.250000e+00
   endloop
 endfacet
 facet normal  0.000000e+00  0.000000e+00  1.000000e+00
   outer loop
     vertex  4.000000e+00  1.500000e+00  8.250000e+00
     vertex  0.000000e+00  1.500000e+00  8.250000e+00
     vertex  4.000000e+00 -1.500000e+00  8.250000e+00
   endloop
 endfacet
 facet normal  0.000000e+00  0.000000e+00  1.000000e+00
   outer loop
     vertex  9.014214e+00 -1.500000e+00  8.250000e+00
     vertex  4.000000e+00  1.500000e+00  8.250000e+00
     vertex  4.000000e+00 -1.500000e+00  8.250000e+00
   endloop
 endfacet
 facet normal  0.000000e+00  0.000000e+00  1.000000e+00
   outer loop
     vertex  9.014214e+00  1.500000e+00  8.250000e+00
     vertex  4.000000e+00  1.500000e+00  8.250000e+00
     vertex  9.014214e+00 -1.500000e+00  8.250000e+00
   endloop
 endfacet
 facet normal  6.402128e-01  0.000000e+00  7.681976e-01
   outer loop
     vertex  5.568065e+00  1.500000e+00  3.422984e+00
     vertex  5.707107e+00  1.500000e+00  3.307107e+00
     vertex  5.707107e+00  4.500000e+00  3.307107e+00
   endloop
 endfacet
 facet normal  6.402128e-01 -0.000000e+00  7.681976e-01
   outer loop
     vertex  5.568065e+00  1.500000e+00  3.422984e+00
     vertex  5.707107e+00  4.500000e+00  3.307107e+00
     vertex  5.568065e+00  4.500000e+00  3.422984e+00
   endloop
 endfacet
 facet normal  4.912546e-01 -0.000000e+00  8.710160e-01
   outer loop
     vertex  5.410413e+00  1.500000e+00  3.511900e+00
     vertex  5.568065e+00  4.500000e+00  3.422984e+00
     vertex  5.410413e+00  4.500000e+00  3.511900e+00
   endloop
 endfacet
 facet normal  4.912546e-01  0.000000e+00  8.710160e-01
   outer loop
     vertex  5.410413e+00  1.500000e+00  3.511900e+00
     vertex  5.568065e+00  1.500000e+00  3.422984e+00
     vertex  5.568065e+00  4.500000e+00  3.422984e+00
   endloop
 endfacet
 facet normal  3.262028e-01 -0.000000e+00  9.452998e-01
   outer loop
     vertex  5.239316e+00  1.500000e+00  3.570942e+00
     vertex  5.410413e+00  4.500000e+00  3.511900e+00
     vertex  5.239316e+00  4.500000e+00  3.570942e+00
   endloop
 endfacet
 facet normal  3.262028e-01  0.000000e+00  9.452998e-01
   outer loop
     vertex  5.239316e+00  1.500000e+00  3.570942e+00
     vertex  5.410413e+00  1.500000e+00  3.511900e+00
     vertex  5.410413e+00  4.500000e+00  3.511900e+00
   endloop
 endfacet
 facet normal  1.504645e-01 -0.000000e+00  9.886154e-01
   outer loop
     vertex  5.060378e+00  1.500000e+00  3.598176e+00
     vertex  5.239316e+00  4.500000e+00  3.570942e+00
     vertex  5.060378e+00  4.500000e+00  3.598176e+00
   endloop
 endfacet
 facet normal  1.504645e-01  0.000000e+00  9.886154e-01
   outer loop
     vertex  5.060378e+00  1.500000e+00  3.598176e+00
     vertex  5.239316e+00  1.500000e+00  3.570942e+00
     vertex  5.239316e+00  4.500000e+00  3.570942e+00
   endloop
 endfacet
 facet normal -3.020303e-02  0.000000e+00  9.995438e-01
   outer loop
     vertex  4.879463e+00  1.500000e+00  3.592709e+00
     vertex  5.060378e+00  4.500000e+00  3.598176e+00
     vertex  4.879463e+00  4.500000e+00  3.592709e+00
   endloop
 endfacet
 facet normal -2.098811e-01  0.000000e+00  9.777269e-01
   outer loop
     vertex  4.879463e+00  1.500000e+00  3.592709e+00
     vertex  4.879463e+00  4.500000e+00  3.592709e+00
     vertex  4.702497e+00  4.500000e+00  3.554721e+00
   endloop
 endfacet
 facet normal -3.020303e-02  0.000000e+00  9.995438e-01
   outer loop
     vertex  4.879463e+00  1.500000e+00  3.592709e+00
     vertex  5.060378e+00  1.500000e+00  3.598176e+00
     vertex  5.060378e+00  4.500000e+00  3.598176e+00
   endloop
 endfacet
 facet normal -2.098811e-01  0.000000e+00  9.777269e-01
   outer loop
     vertex  4.702497e+00  1.500000e+00  3.554721e+00
     vertex  4.879463e+00  1.500000e+00  3.592709e+00
     vertex  4.702497e+00  4.500000e+00  3.554721e+00
   endloop
 endfacet
 facet normal -3.826834e-01  0.000000e+00  9.238795e-01
   outer loop
     vertex  4.535277e+00  1.500000e+00  3.485456e+00
     vertex  4.702497e+00  4.500000e+00  3.554721e+00
     vertex  4.535277e+00  4.500000e+00  3.485456e+00
   endloop
 endfacet
 facet normal -3.826834e-01  0.000000e+00  9.238795e-01
   outer loop
     vertex  4.535277e+00  1.500000e+00  3.485456e+00
     vertex  4.702497e+00  1.500000e+00  3.554721e+00
     vertex  4.702497e+00  4.500000e+00  3.554721e+00
   endloop
 endfacet
 facet normal -5.429490e-01  0.000000e+00  8.397657e-01
   outer loop
     vertex  4.383281e+00  1.500000e+00  3.387183e+00
     vertex  4.535277e+00  4.500000e+00  3.485456e+00
     vertex  4.383281e+00  4.500000e+00  3.387183e+00
   endloop
 endfacet
 facet normal -6.854274e-01  0.000000e+00  7.281410e-01
   outer loop
     vertex  4.383281e+00  1.500000e+00  3.387183e+00
     vertex  4.383281e+00  4.500000e+00  3.387183e+00
     vertex  4.251489e+00  4.500000e+00  3.263123e+00
   endloop
 endfacet
 facet normal -5.429490e-01  0.000000e+00  8.397657e-01
   outer loop
     vertex  4.383281e+00  1.500000e+00  3.387183e+00
     vertex  4.535277e+00  1.500000e+00  3.485456e+00
     vertex  4.535277e+00  4.500000e+00  3.485456e+00
   endloop
 endfacet
 facet normal -6.854274e-01  0.000000e+00  7.281410e-01
   outer loop
     vertex  4.251489e+00  1.500000e+00  3.263123e+00
     vertex  4.383281e+00  1.500000e+00  3.387183e+00
     vertex  4.251489e+00  4.500000e+00  3.263123e+00
   endloop
 endfacet
 facet normal -8.054511e-01  0.000000e+00  5.926622e-01
   outer loop
     vertex  4.144219e+00  1.500000e+00  3.117338e+00
     vertex  4.251489e+00  4.500000e+00  3.263123e+00
     vertex  4.144219e+00  4.500000e+00  3.117338e+00
   endloop
 endfacet
 facet normal -8.054511e-01  0.000000e+00  5.926622e-01
   outer loop
     vertex  4.144219e+00  1.500000e+00  3.117338e+00
     vertex  4.251489e+00  1.500000e+00  3.263123e+00
     vertex  4.251489e+00  4.500000e+00  3.263123e+00
   endloop
 endfacet
 facet normal -8.990881e-01  0.000000e+00  4.377677e-01
   outer loop
     vertex  4.064984e+00  1.500000e+00  2.954605e+00
     vertex  4.144219e+00  4.500000e+00  3.117338e+00
     vertex  4.064984e+00  4.500000e+00  2.954605e+00
   endloop
 endfacet
 facet normal -8.990881e-01  0.000000e+00  4.377677e-01
   outer loop
     vertex  4.064984e+00  1.500000e+00  2.954605e+00
     vertex  4.144219e+00  1.500000e+00  3.117338e+00
     vertex  4.144219e+00  4.500000e+00  3.117338e+00
   endloop
 endfacet
 facet normal -9.632708e-01  0.000000e+00  2.685319e-01
   outer loop
     vertex  4.016380e+00  1.500000e+00  2.780255e+00
     vertex  4.064984e+00  4.500000e+00  2.954605e+00
     vertex  4.016380e+00  4.500000e+00  2.780255e+00
   endloop
 endfacet
 facet normal -9.632708e-01  0.000000e+00  2.685319e-01
   outer loop
     vertex  4.016380e+00  1.500000e+00  2.780255e+00
     vertex  4.064984e+00  1.500000e+00  2.954605e+00
     vertex  4.064984e+00  4.500000e+00  2.954605e+00
   endloop
 endfacet
 facet normal -9.958966e-01  0.000000e+00  9.049888e-02
   outer loop
     vertex  4.000000e+00  1.500000e+00  2.600000e+00
     vertex  4.016380e+00  4.500000e+00  2.780255e+00
     vertex  4.000000e+00  4.500000e+00  2.600000e+00
   endloop
 endfacet
 facet normal -9.958966e-01  0.000000e+00  9.049888e-02
   outer loop
     vertex  4.000000e+00  1.500000e+00  2.600000e+00
     vertex  4.016380e+00  1.500000e+00  2.780255e+00
     vertex  4.016380e+00  4.500000e+00  2.780255e+00
   endloop
 endfacet
 facet normal  0.000000e+00  0.000000e+00 -1.000000e+00
   outer loop
     vertex  4.000000e+00  4.500000e+00  0.000000e+00
     vertex -4.663975e-20  4.500000e+00  0.000000e+00
     vertex -1.554658e-20  7.500000e+00  0.000000e+00
   endloop
 endfacet
 facet normal  0.000000e+00 -0.000000e+00 -1.000000e+00
   outer loop
     vertex  9.014214e+00  7.500000e+00  0.000000e+00
     vertex  9.014214e+00  4.500000e+00  0.000000e+00
     vertex  4.000000e+00  4.500000e+00  0.000000e+00
   endloop
 endfacet
 facet normal -0.000000e+00  0.000000e+00 -1.000000e+00
   outer loop
     vertex  9.014214e+00  7.500000e+00  0.000000e+00
     vertex  4.000000e+00  4.500000e+00  0.000000e+00
     vertex -1.554658e-20  7.500000e+00  0.000000e+00
   endloop
 endfacet
 facet normal  0.000000e+00  0.000000e+00  1.000000e+00
   outer loop
     vertex  4.000000e+00  4.500000e+00  8.250000e+00
     vertex -1.554658e-20  7.500000e+00  8.250000e+00
     vertex -4.663975e-20  4.500000e+00  8.250000e+00
   endloop
 endfacet
 facet normal  0.000000e+00  0.000000e+00  1.000000e+00
   outer loop
     vertex  9.014214e+00  7.500000e+00  8.250000e+00
     vertex  4.000000e+00  4.500000e+00  8.250000e+00
     vertex  9.014214e+00  4.500000e+00  8.250000e+00
   endloop
 endfacet
 facet normal  0.000000e+00  0.000000e+00  1.000000e+00
   outer loop
     vertex  9.014214e+00  7.500000e+00  8.250000e+00
     vertex -1.554658e-20  7.500000e+00  8.250000e+00
     vertex  4.000000e+00  4.500000e+00  8.250000e+00
   endloop
 endfacet
 facet normal  0.000000e+00  1.000000e+00  0.000000e+00
   outer loop
     vertex  9.014214e+00  7.500000e+00  8.250000e+00
     vertex -1.554658e-20  7.500000e+00  0.000000e+00
     vertex -1.554658e-20  7.500000e+00  8.250000e+00
   endloop
 endfacet
 facet normal  0.000000e+00  1.000000e+00 -0.000000e+00
   outer loop
     vertex  9.014214e+00  7.500000e+00  0.000000e+00
     vertex -1.554658e-20  7.500000e+00  0.000000e+00
     vertex  9.014214e+00  7.500000e+00  8.250000e+00
   endloop
 endfacet
 facet normal  0.000000e+00 -1.000000e+00  0.000000e+00
   outer loop
     vertex  4.535277e+00  1.500000e+00  3.485456e+00
     vertex  4.383281e+00  1.500000e+00  3.387183e+00
     vertex  4.251489e+00  1.500000e+00  3.263123e+00
   endloop
 endfacet
 facet normal  0.000000e+00 -1.000000e+00  0.000000e+00
   outer loop
     vertex  4.879463e+00  1.500000e+00  3.592709e+00
     vertex  4.702497e+00  1.500000e+00  3.554721e+00
     vertex  4.535277e+00  1.500000e+00  3.485456e+00
   endloop
 endfacet
 facet normal  0.000000e+00 -1.000000e+00  0.000000e+00
   outer loop
     vertex  4.000000e+00  1.500000e+00  2.600000e+00
     vertex  4.251489e+00  1.500000e+00  3.263123e+00
     vertex  4.144219e+00  1.500000e+00  3.117338e+00
   endloop
 endfacet
 facet normal  0.000000e+00 -1.000000e+00  0.000000e+00
   outer loop
     vertex  4.000000e+00  1.500000e+00  2.600000e+00
     vertex  4.144219e+00  1.500000e+00  3.117338e+00
     vertex  4.064984e+00  1.500000e+00  2.954605e+00
   endloop
 endfacet
 facet normal  0.000000e+00 -1.000000e+00  0.000000e+00
   outer loop
     vertex  4.000000e+00  1.500000e+00  2.600000e+00
     vertex  4.064984e+00  1.500000e+00  2.954605e+00
     vertex  4.016380e+00  1.500000e+00  2.780255e+00
   endloop
 endfacet
 facet normal  0.000000e+00 -1.000000e+00  0.000000e+00
   outer loop
     vertex  4.000000e+00  1.500000e+00  2.600000e+00
     vertex  4.535277e+00  1.500000e+00  3.485456e+00
     vertex  4.251489e+00  1.500000e+00  3.263123e+00
   endloop
 endfacet
 facet normal  0.000000e+00 -1.000000e+00  0.000000e+00
   outer loop
     vertex  5.410413e+00  1.500000e+00  3.511900e+00
     vertex  5.239316e+00  1.500000e+00  3.570942e+00
     vertex  5.060378e+00  1.500000e+00  3.598176e+00
   endloop
 endfacet
 facet normal  0.000000e+00 -1.000000e+00  0.000000e+00
   outer loop
     vertex  5.410413e+00  1.500000e+00  3.511900e+00
     vertex  5.060378e+00  1.500000e+00  3.598176e+00
     vertex  4.879463e+00  1.500000e+00  3.592709e+00
   endloop
 endfacet
 facet normal  0.000000e+00 -1.000000e+00  0.000000e+00
   outer loop
     vertex  5.707107e+00  1.500000e+00  3.307107e+00
     vertex  5.568065e+00  1.500000e+00  3.422984e+00
     vertex  5.410413e+00  1.500000e+00  3.511900e+00
   endloop
 endfacet
 facet normal  0.000000e+00 -1.000000e+00  0.000000e+00
   outer loop
     vertex  5.707107e+00  1.500000e+00  3.307107e+00
     vertex  4.879463e+00  1.500000e+00  3.592709e+00
     vertex  4.535277e+00  1.500000e+00  3.485456e+00
   endloop
 endfacet
 facet normal -0.000000e+00 -1.000000e+00  0.000000e+00
   outer loop
     vertex  5.707107e+00  1.500000e+00  3.307107e+00
     vertex  4.535277e+00  1.500000e+00  3.485456e+00
     vertex  4.000000e+00  1.500000e+00  2.600000e+00
   endloop
 endfacet
 facet normal  0.000000e+00 -1.000000e+00  0.000000e+00
   outer loop
     vertex  5.707107e+00  1.500000e+00  3.307107e+00
     vertex  5.410413e+00  1.500000e+00  3.511900e+00
     vertex  4.879463e+00  1.500000e+00  3.592709e+00
   endloop
 endfacet
 facet normal  0.000000e+00 -1.000000e+00  0.000000e+00
   outer loop
     vertex  4.000000e+00  1.500000e+00  0.000000e+00
     vertex  5.707107e+00  1.500000e+00  3.307107e+00
     vertex  4.000000e+00  1.500000e+00  2.600000e+00
   endloop
 endfacet
 facet normal  0.000000e+00 -1.000000e+00  0.000000e+00
   outer loop
     vertex  9.014214e+00  1.500000e+00  0.000000e+00
     vertex  5.707107e+00  1.500000e+00  3.307107e+00
     vertex  4.000000e+00  1.500000e+00  0.000000e+00
   endloop
 endfacet
 facet normal  0.000000e+00  1.000000e+00  0.000000e+00
   outer loop
     vertex  5.410413e+00  4.500000e+00  3.511900e+00
     vertex  5.568065e+00  4.500000e+00  3.422984e+00
     vertex  5.707107e+00  4.500000e+00  3.307107e+00
   endloop
 endfacet
 facet normal  0.000000e+00  1.000000e+00  0.000000e+00
   outer loop
     vertex  5.060378e+00  4.500000e+00  3.598176e+00
     vertex  5.239316e+00  4.500000e+00  3.570942e+00
     vertex  5.410413e+00  4.500000e+00  3.511900e+00
   endloop
 endfacet
 facet normal  0.000000e+00  1.000000e+00  0.000000e+00
   outer loop
     vertex  5.060378e+00  4.500000e+00  3.598176e+00
     vertex  5.410413e+00  4.500000e+00  3.511900e+00
     vertex  5.707107e+00  4.500000e+00  3.307107e+00
   endloop
 endfacet
 facet normal -0.000000e+00  1.000000e+00  0.000000e+00
   outer loop
     vertex  4.879463e+00  4.500000e+00  3.592709e+00
     vertex  5.060378e+00  4.500000e+00  3.598176e+00
     vertex  5.707107e+00  4.500000e+00  3.307107e+00
   endloop
 endfacet
 facet normal  0.000000e+00  1.000000e+00  0.000000e+00
   outer loop
     vertex  4.251489e+00  4.500000e+00  3.263123e+00
     vertex  4.702497e+00  4.500000e+00  3.554721e+00
     vertex  4.879463e+00  4.500000e+00  3.592709e+00
   endloop
 endfacet
 facet normal  0.000000e+00  1.000000e+00  0.000000e+00
   outer loop
     vertex  4.251489e+00  4.500000e+00  3.263123e+00
     vertex  4.535277e+00  4.500000e+00  3.485456e+00
     vertex  4.702497e+00  4.500000e+00  3.554721e+00
   endloop
 endfacet
 facet normal  0.000000e+00  1.000000e+00  0.000000e+00
   outer loop
     vertex  4.251489e+00  4.500000e+00  3.263123e+00
     vertex  4.383281e+00  4.500000e+00  3.387183e+00
     vertex  4.535277e+00  4.500000e+00  3.485456e+00
   endloop
 endfacet
 facet normal  0.000000e+00  1.000000e+00  0.000000e+00
   outer loop
     vertex  4.144219e+00  4.500000e+00  3.117338e+00
     vertex  4.251489e+00  4.500000e+00  3.263123e+00
     vertex  4.879463e+00  4.500000e+00  3.592709e+00
   endloop
 endfacet
 facet normal  0.000000e+00  1.000000e+00  0.000000e+00
   outer loop
     vertex  4.000000e+00  4.500000e+00  2.600000e+00
     vertex  4.064984e+00  4.500000e+00  2.954605e+00
     vertex  4.144219e+00  4.500000e+00  3.117338e+00
   endloop
 endfacet
 facet normal  0.000000e+00  1.000000e+00  0.000000e+00
   outer loop
     vertex  4.000000e+00  4.500000e+00  2.600000e+00
     vertex  4.016380e+00  4.500000e+00  2.780255e+00
     vertex  4.064984e+00  4.500000e+00  2.954605e+00
   endloop
 endfacet
 facet normal  0.000000e+00  1.000000e+00  0.000000e+00
   outer loop
     vertex  4.000000e+00  4.500000e+00  2.600000e+00
     vertex  4.879463e+00  4.500000e+00  3.592709e+00
     vertex  5.707107e+00  4.500000e+00  3.307107e+00
   endloop
 endfacet
 facet normal  0.000000e+00  1.000000e+00  0.000000e+00
   outer loop
     vertex  4.000000e+00  4.500000e+00  2.600000e+00
     vertex  4.144219e+00  4.500000e+00  3.117338e+00
     vertex  4.879463e+00  4.500000e+00  3.592709e+00
   endloop
 endfacet
 facet normal  0.000000e+00  1.000000e+00  0.000000e+00
   outer loop
     vertex  4.000000e+00  4.500000e+00  0.000000e+00
     vertex  5.707107e+00  4.500000e+00  3.307107e+00
     vertex  9.014214e+00  4.500000e+00  0.000000e+00
   endloop
 endfacet
 facet normal  0.000000e+00  1.000000e+00  0.000000e+00
   outer loop
     vertex  4.000000e+00  4.500000e+00  0.000000e+00
     vertex  4.000000e+00  4.500000e+00  2.600000e+00
     vertex  5.707107e+00  4.500000e+00  3.307107e+00
   endloop
 endfacet
 facet normal  0.000000e+00 -1.000000e+00  0.000000e+00
   outer loop
     vertex  4.000000e+00 -1.500000e+00  0.000000e+00
     vertex  9.014214e+00 -1.500000e+00  8.250000e+00
     vertex  4.000000e+00 -1.500000e+00  8.250000e+00
   endloop
 endfacet
 facet normal  0.000000e+00 -1.000000e+00  0.000000e+00
   outer loop
     vertex  9.014214e+00 -1.500000e+00  0.000000e+00
     vertex  9.014214e+00 -1.500000e+00  8.250000e+00
     vertex  4.000000e+00 -1.500000e+00  0.000000e+00
   endloop
 endfacet
 facet normal  0.000000e+00  1.000000e+00  0.000000e+00
   outer loop
     vertex  4.000000e+00  1.500000e+00  0.000000e+00
     vertex  4.000000e+00  1.500000e+00  8.250000e+00
     vertex  9.014214e+00  1.500000e+00  8.250000e+00
   endloop
 endfacet
 facet normal  0.000000e+00  1.000000e+00 -0.000000e+00
   outer loop
     vertex  9.014214e+00  1.500000e+00  0.000000e+00
     vertex  4.000000e+00  1.500000e+00  0.000000e+00
     vertex  9.014214e+00  1.500000e+00  8.250000e+00
   endloop
 endfacet
 facet normal -0.000000e+00  0.000000e+00 -1.000000e+00
   outer loop
     vertex  9.014214e+00  4.500000e+00  0.000000e+00
     vertex  4.000000e+00  1.500000e+00  0.000000e+00
     vertex  4.000000e+00  4.500000e+00  0.000000e+00
   endloop
 endfacet
 facet normal  0.000000e+00  0.000000e+00 -1.000000e+00
   outer loop
     vertex  9.014214e+00  1.500000e+00  0.000000e+00
     vertex  4.000000e+00  1.500000e+00  0.000000e+00
     vertex  9.014214e+00  4.500000e+00  0.000000e+00
   endloop
 endfacet
 facet normal  0.000000e+00 -1.000000e+00  0.000000e+00
   outer loop
     vertex  9.014214e+00  4.500000e+00  0.000000e+00
     vertex  9.014214e+00  4.500000e+00  8.250000e+00
     vertex  4.000000e+00  4.500000e+00  8.250000e+00
   endloop
 endfacet
 facet normal  0.000000e+00 -1.000000e+00  0.000000e+00
   outer loop
     vertex  4.000000e+00  4.500000e+00  0.000000e+00
     vertex  9.014214e+00  4.500000e+00  0.000000e+00
     vertex  4.000000e+00  4.500000e+00  8.250000e+00
   endloop
 endfacet
 facet normal  7.071068e-01  0.000000e+00  7.071068e-01
   outer loop
     vertex  9.014214e+00  1.500000e+00  0.000000e+00
     vertex  5.707107e+00  4.500000e+00  3.307107e+00
     vertex  5.707107e+00  1.500000e+00  3.307107e+00
   endloop
 endfacet
 facet normal  7.071068e-01 -0.000000e+00  7.071068e-01
   outer loop
     vertex  9.014214e+00  1.500000e+00  0.000000e+00
     vertex  9.014214e+00  4.500000e+00  0.000000e+00
     vertex  5.707107e+00  4.500000e+00  3.307107e+00
   endloop
 endfacet
 facet normal  1.000000e+00  0.000000e+00  0.000000e+00
   outer loop
     vertex  9.014214e+00 -1.500000e+00  0.000000e+00
     vertex  9.014214e+00  1.500000e+00  0.000000e+00
     vertex  9.014214e+00  1.500000e+00  8.250000e+00
   endloop
 endfacet
 facet normal  1.000000e+00  0.000000e+00  0.000000e+00
   outer loop
     vertex  9.014214e+00 -1.500000e+00  0.000000e+00
     vertex  9.014214e+00  1.500000e+00  8.250000e+00
     vertex  9.014214e+00 -1.500000e+00  8.250000e+00
   endloop
 endfacet
 facet normal  1.000000e+00  0.000000e+00  0.000000e+00
   outer loop
     vertex  9.014214e+00  4.500000e+00  0.000000e+00
     vertex  9.014214e+00  7.500000e+00  0.000000e+00
     vertex  9.014214e+00  7.500000e+00  8.250000e+00
   endloop
 endfacet
 facet normal  1.000000e+00  0.000000e+00  0.000000e+00
   outer loop
     vertex  9.014214e+00  4.500000e+00  0.000000e+00
     vertex  9.014214e+00  7.500000e+00  8.250000e+00
     vertex  9.014214e+00  4.500000e+00  8.250000e+00
   endloop
 endfacet
endsolid
